<?xml version="1.0" encoding="UTF-8"?>
<svg width="295px" height="66px" viewBox="0 0 295 66" version="1.1" xmlns="http://www.w3.org/2000/svg" xmlns:xlink="http://www.w3.org/1999/xlink">
    <!-- Generator: Sketch 52.2 (67145) - http://www.bohemiancoding.com/sketch -->
    <title>reno系列</title>
    <desc>Created with Sketch.</desc>
    <g id="Page-1" stroke="none" stroke-width="1" fill="none" fill-rule="evenodd">
        <g id="5120-定帧-有分层-copy" transform="translate(-186.000000, -687.000000)" fill="#FFFFFF">
            <g id="hero">
                <g id="reno系列" transform="translate(186.000000, 687.000000)">
                    <g id="Group-17">
                        <path d="M281.251431,16.8063238 L226.225562,16.8063238 C221.772317,16.8063238 220.15714,17.270419 218.52941,18.1430857 C216.900633,19.0147048 215.623346,20.2948952 214.752991,21.9260381 C213.88159,23.5561333 213.418168,25.1736571 213.418168,29.6333714 L213.418168,51.8638476 C213.418168,56.3235619 213.88159,57.9410857 214.752991,59.571181 C215.623346,61.2023238 216.900633,62.4825143 218.52941,63.3541333 C220.15714,64.2257524 221.772317,64.6898476 226.225562,64.6898476 L281.251431,64.6898476 C285.704676,64.6898476 287.319853,64.2257524 288.948629,63.3541333 C290.57636,62.4825143 291.854693,61.2023238 292.725048,59.571181 C293.595402,57.9410857 294.059871,56.3235619 294.059871,51.8638476 L294.059871,29.6333714 C294.059871,25.1736571 293.595402,23.5561333 292.725048,21.9260381 C291.854693,20.2948952 290.57636,19.0147048 288.948629,18.1430857 C287.319853,17.270419 285.704676,16.8063238 281.251431,16.8063238 M281.251431,20.3797524 C285.249622,20.3797524 286.266431,20.7589905 287.266502,21.2943238 C288.265527,21.8296571 289.043824,22.6090857 289.578381,23.6106095 C290.112938,24.6110857 290.491626,25.6293714 290.491626,29.6333714 L290.491626,51.8638476 C290.491626,55.8668 290.112938,56.8861333 289.578381,57.8866095 C289.043824,58.8881333 288.265527,59.6675619 287.265456,60.2028952 C286.266431,60.7382286 285.249622,61.1174667 281.251431,61.1174667 L226.225562,61.1174667 C222.228417,61.1174667 221.211608,60.7382286 220.211537,60.2028952 C219.211466,59.6675619 218.434215,58.8881333 217.898612,57.8866095 C217.365101,56.8861333 216.986413,55.8668 216.986413,51.8638476 L216.986413,29.6333714 C216.986413,25.6293714 217.365101,24.6110857 217.898612,23.6106095 C218.434215,22.6090857 219.211466,21.8296571 220.211537,21.2943238 C221.211608,20.7589905 222.227371,20.3797524 226.225562,20.3797524 L281.251431,20.3797524" id="Fill-1"></path>
                        <path d="M244.259372,45.274219 C245.035578,45.6943143 245.833752,46.1521238 246.652848,46.6466 C247.471943,47.1400286 248.279532,47.650219 249.077706,48.1761238 C249.875879,48.700981 250.652085,49.2268857 251.407369,49.7517429 C252.163699,50.2776476 252.856216,50.7826 253.487014,51.2666 L251.439798,54.1046 C250.830968,53.5986 250.164603,53.0894571 249.439656,52.5750762 C248.715755,52.0596476 247.964656,51.5494571 247.18845,51.0455524 C246.412245,50.5395524 245.613025,50.0566 244.794975,49.5946 C243.975879,49.1326 243.177706,48.6915524 242.4015,48.2693619 L244.259372,45.274219 Z M226.971535,34.9939333 C227.286411,34.9719333 227.558397,34.9467905 227.789585,34.9132667 C228.020773,34.8828857 228.231039,34.840981 228.420383,34.7875524 C228.608681,34.7351714 228.798025,34.6618381 228.986323,34.5665048 C229.175667,34.472219 229.384887,34.362219 229.616074,34.2365048 C230.288716,33.8583143 231.03877,33.3753619 231.868326,32.7855524 C232.696837,32.1978381 233.573468,31.5346952 234.497174,30.7992667 C233.112138,30.8621238 231.799284,30.9092667 230.560702,30.9406952 C229.323167,30.9721238 228.19861,30.9878381 227.192262,30.9878381 L226.688043,27.6763143 C228.156766,27.6983143 229.895383,27.6710762 231.899709,27.5977429 C233.904035,27.5244095 235.977404,27.4248857 238.11877,27.2981238 C240.261181,27.1724095 242.364887,27.014219 244.433025,26.8256476 C246.500117,26.6360286 248.332883,26.436981 249.928184,26.2253619 L250.841429,29.5054571 C248.931252,29.736981 246.878805,29.9423143 244.685135,30.1204095 C242.491465,30.2995524 240.301979,30.4525048 238.11877,30.578219 L238.875099,31.2403143 C238.139691,31.892981 237.304904,32.5645048 236.370738,33.2580286 C235.436571,33.9515524 234.539018,34.5518381 233.679124,35.0557429 C234.917706,35.0358381 236.119674,35.0033619 237.285028,34.9614571 C238.449337,34.9195524 239.525773,34.8566952 240.512245,34.7728857 C241.394106,34.0992667 242.254,33.4005048 243.094018,32.6755524 C243.934035,31.9495524 244.763592,31.1973619 245.582688,30.4200286 L248.101695,32.8798381 C246.106784,34.6670762 244.050152,36.3286 241.928663,37.8633619 C239.80822,39.3981238 237.699284,40.7223143 235.599762,41.836981 C236.29228,41.8160286 237.064301,41.7846 237.91478,41.7416476 C238.764213,41.6997429 239.635613,41.6588857 240.528982,41.6159333 C241.420259,41.5740286 242.317812,41.5206 243.220596,41.4577429 C244.123379,41.3948857 244.973858,41.3320286 245.770986,41.2691714 C245.350454,40.8480286 244.941429,40.4384095 244.542865,40.0392667 C244.144301,39.6401238 243.756199,39.2619333 243.377511,38.9036476 L245.802369,36.5381238 C247.020028,37.6318381 248.232457,38.8355524 249.439656,40.1492667 C250.646855,41.462981 251.723291,42.7201238 252.667918,43.9175524 L250.022333,46.1573619 C249.601801,45.6325048 249.16244,45.0950762 248.700064,44.5492667 C247.419638,44.6330762 246.138167,44.7064095 244.857741,44.7692667 C243.577316,44.8321238 242.285383,44.8960286 240.985082,44.9588857 L240.985082,50.950219 C240.96416,51.6856476 240.905578,52.2901238 240.811429,52.7636476 C240.71728,53.2371714 240.522706,53.6101238 240.228752,53.8835524 C239.934798,54.156981 239.525773,54.3612667 239.000631,54.4985048 C238.475489,54.6357429 237.782972,54.734219 236.922032,54.7981238 C236.334124,54.8400286 235.778645,54.8714571 235.253504,54.8934571 C234.728362,54.9133619 234.255525,54.9238381 233.837085,54.9238381 L233.143521,51.296981 C233.521163,51.3608857 233.898805,51.4027905 234.277493,51.4237429 C234.655135,51.4446952 235.06416,51.4446952 235.505613,51.4237429 C236.302741,51.4027905 236.817422,51.302219 237.04861,51.1241238 C237.279798,50.944981 237.394869,50.5720286 237.394869,50.0052667 L237.394869,45.1170762 C235.631145,45.1788857 233.883113,45.2323143 232.151819,45.274219 C230.419479,45.3161238 228.671447,45.3475524 226.90877,45.3685048 L226.498699,41.6787905 C226.981996,41.6787905 227.454833,41.6421238 227.916163,41.5687905 C228.377493,41.4954571 228.881713,41.352981 229.427777,41.1434571 C230.624514,40.6804095 231.767901,40.170219 232.860028,39.6139333 C233.95111,39.0555524 235.032777,38.4521238 236.103982,37.7994571 C234.549479,37.8633619 232.991837,37.920981 231.426872,37.9733619 C229.862954,38.0257429 228.523947,38.0624095 227.412989,38.0844095 L226.971535,34.9939333 Z M224.200418,51.3923143 C224.997546,50.9292667 225.748645,50.4620286 226.45267,49.9885048 C227.154603,49.5160286 227.848167,49.0320286 228.530223,48.5375524 C229.21228,48.0451714 229.889106,47.5286952 230.560702,46.9933619 C231.232298,46.456981 231.925862,45.8839333 232.640348,45.274219 L234.970011,47.8911714 C233.667617,49.0686952 232.277351,50.1886 230.797121,51.2498381 C229.317936,52.3110762 227.759248,53.326219 226.121057,54.2931714 L224.200418,51.3923143 Z" id="Fill-4"></path>
                        <path d="M274.491119,51.2345429 C275.22548,51.2764476 275.886615,51.2974 276.474523,51.2974 C277.062431,51.2974 277.598034,51.2869238 278.081332,51.2659714 C278.773849,51.2240667 279.224718,51.0721619 279.434984,50.8092095 C279.64525,50.5462571 279.74986,50.0465429 279.74986,49.3100667 L279.74986,25.9418762 L283.277307,25.9418762 L283.277307,50.5095905 C283.277307,51.245019 283.218725,51.8599714 283.103654,52.3534 C282.988583,52.8478762 282.788778,53.263781 282.506332,53.599019 C282.221793,53.9353048 281.83369,54.193019 281.339931,54.3721619 C280.847218,54.5502571 280.222697,54.671781 279.466367,54.7346381 C278.730959,54.7974952 278.02275,54.8446381 277.340693,54.8771143 C276.658637,54.9085429 275.929505,54.9232095 275.152254,54.9232095 L274.491119,51.2345429 Z M273.419913,47.5123524 L276.94736,47.5123524 L276.94736,28.843781 L273.419913,28.843781 L273.419913,47.5123524 Z M256.194842,52.7169238 C257.833034,51.5603524 259.291296,50.3985429 260.572768,49.2314952 C261.852147,48.0654952 262.980888,46.8502571 263.956899,45.5889238 C264.933956,44.3275905 265.763512,42.9992095 266.445569,41.6006381 C267.12658,40.2020667 267.689381,38.683019 268.129789,37.0424476 L263.059346,37.0424476 C262.89197,37.4206381 262.718317,37.7998762 262.54048,38.1780667 C262.361598,38.5562571 262.177484,38.925019 261.989186,39.2822571 C262.556172,39.7023524 263.154541,40.1915905 263.784293,40.7478762 C264.414044,41.3052095 264.98103,41.8363524 265.48525,42.3413048 L263.217307,45.1468286 C262.754931,44.6649238 262.272679,44.1809238 261.768459,43.6979714 C261.265285,43.2139714 260.750605,42.7509238 260.225463,42.3088286 C259.847821,42.8986381 259.454488,43.4769238 259.044417,44.0447333 C258.635392,44.6125429 258.210676,45.1793048 257.769222,45.7471143 L255.092254,43.3815905 C256.624789,41.3848286 257.920906,39.3294 258.981651,37.2163524 C260.041349,35.1043524 260.90752,32.8069238 261.580161,30.3251143 L257.076704,30.3251143 L257.076704,26.9507333 L272.601863,26.9507333 L272.601863,30.3251143 L265.295906,30.3251143 C265.000906,31.5036857 264.68603,32.6382571 264.351278,33.7319714 L271.593424,33.7319714 L271.593424,36.8853048 C271.215782,38.8831143 270.675995,40.7332095 269.97197,42.4355905 C269.267945,44.139019 268.39236,45.7471143 267.343122,47.2609238 C266.292839,48.7736857 265.054257,50.2089238 263.627378,51.5655905 C262.198406,52.9212095 260.592644,54.2506381 258.807998,55.5549238 L256.194842,52.7169238 Z" id="Fill-6"></path>
                        <path d="M11.4455816,9.0934381 L11.4455816,30.3360095 L22.8909539,30.3360095 C29.6058652,30.3360095 33.4199433,26.6682952 33.4199433,19.7152476 C33.4199433,12.7611524 29.6058652,9.0934381 22.8909539,9.0934381 L11.4455816,9.0934381 Z M25.6380106,0.000104761905 C37.2361135,0.000104761905 44.8663617,7.71791429 44.8663617,19.7152476 C44.8663617,29.8782 39.3732943,36.9842 30.5975674,38.8950571 L48.8342163,64.646581 L34.9462021,64.646581 L18.3885426,39.4293429 L11.4455816,39.4293429 L11.4455816,64.646581 L0.000209219859,64.646581 L0.000209219859,0.000104761905 L25.6380106,0.000104761905 Z" id="Fill-8"></path>
                        <path d="M58.6018546,35.7617333 L80.4245319,35.7617333 C79.5855603,28.2733524 75.8457553,24.2232571 69.5900816,24.2232571 C63.8668723,24.2232571 59.669922,28.2733524 58.6018546,35.7617333 Z M58.3727589,43.4795429 C58.9836809,52.4199238 63.8668723,57.234781 70.9625638,57.234781 C76.8385035,57.234781 79.6619255,54.5591619 81.4172801,50.3571619 L90.191961,54.4837333 C87.368539,61.2084 81.6453298,65.7163048 71.0399752,65.7163048 C56.5420851,65.7163048 47.6899929,55.4004 47.6899929,40.7284952 C47.6899929,25.8282095 57.0755957,15.7417333 69.6654007,15.7417333 C83.0952234,15.7417333 91.2589823,25.598781 91.2589823,40.7284952 C91.2589823,41.7216381 91.1836631,42.868781 91.0309326,43.4795429 L58.3727589,43.4795429 Z" id="Fill-11"></path>
                        <path d="M105.376511,16.7347714 C105.529241,17.8043905 105.758337,20.4024857 105.911067,24.0712476 C109.497096,18.4151524 115.220305,15.7416286 122.468727,15.7416286 C132.616936,15.7416286 138.873656,22.0074381 138.873656,33.164581 L138.873656,64.646581 L128.267255,64.646581 L128.267255,34.8449619 C128.267255,27.8908667 124.910323,24.6820095 118.577238,24.6820095 C111.32777,24.6820095 106.90277,29.8017238 106.90277,38.1313429 L106.90277,64.646581 L96.2974149,64.646581 L96.2974149,27.8143905 C96.2974149,23.000581 96.0683191,18.4926762 95.9155887,16.7347714 L105.376511,16.7347714 Z" id="Fill-13"></path>
                        <path d="M166.344433,24.2235714 C159.096011,24.2235714 154.212819,30.7942381 154.212819,40.7288095 C154.212819,50.6623333 159.096011,57.2350952 166.344433,57.2350952 C173.593901,57.2350952 178.477092,50.6623333 178.477092,40.7288095 C178.477092,30.7942381 173.593901,24.2235714 166.344433,24.2235714 M166.344433,15.741 C179.468794,15.741 189.007128,25.6755714 189.007128,40.7288095 C189.007128,55.706619 179.468794,65.7155714 166.344433,65.7155714 C153.144752,65.7155714 143.606418,55.706619 143.606418,40.7288095 C143.606418,25.6755714 153.144752,15.741 166.344433,15.741" id="Fill-15"></path>
                    </g>
                </g>
            </g>
        </g>
    </g>
</svg>