<?xml version="1.0" encoding="UTF-8"?>
<svg width="64px" height="64px" viewBox="0 0 64 64" version="1.1" xmlns="http://www.w3.org/2000/svg" xmlns:xlink="http://www.w3.org/1999/xlink">
    <!-- Generator: Sketch 52.2 (67145) - http://www.bohemiancoding.com/sketch -->
    <title>camera_iconNightscape</title>
    <desc>Created with Sketch.</desc>
    <g id="camera_iconNightscape" stroke="none" stroke-width="1" fill="none" fill-rule="evenodd">
        <rect id="Rectangle" fill-opacity="0" fill="#FFFFFF" x="0" y="0" width="64" height="64"></rect>
        <path d="M33.0624973,10.3386998 L50.3375027,20.3246549 C51.1187387,20.7762546 51.6,21.6108454 51.6,22.5140449 L51.6,42.4859551 C51.6,43.3891546 51.1187387,44.2237454 50.3375027,44.6753451 L33.0624973,54.6613002 C32.2812613,55.1128999 31.3187387,55.1128999 30.5375027,54.6613002 L13.2624973,44.6753451 C12.4812613,44.2237454 12,43.3891546 12,42.4859551 L12,22.5140449 C12,21.6108454 12.4812613,20.7762546 13.2624973,20.3246549 L30.5375027,10.3386998 C31.3187387,9.88710006 32.2812613,9.88710006 33.0624973,10.3386998 Z M22.6049776,31.488764 C22.6049776,34.1426264 24.7518544,36.2921348 27.4024675,36.2921348 C30.0530807,36.2921348 32.1999574,34.1426264 32.1999574,31.488764 C32.1999574,28.8349017 30.0530807,26.6853933 27.4024675,26.6853933 C24.7518544,26.6853933 22.6049776,28.8349017 22.6049776,31.488764 Z M18.0599872,43.1573843 L30.9448353,50.406739 C31.4830739,50.7095662 32.3647131,50.7160025 32.9220371,50.4168174 L36.5530712,48.4675895 C36.9379449,48.2609799 37.2499468,47.7384971 37.2499468,47.3004189 L37.2499468,43.1573843 C37.2499468,39.9248303 30.8572915,38.3146067 27.654967,38.3146067 C24.4526425,38.3146067 18.0599872,39.9369372 18.0599872,43.1573843 Z M38.1770151,21.6292135 C37.5244011,21.6292135 36.9028639,21.7222472 36.3124037,21.8966854 C38.8358445,22.6351404 40.6631637,24.8388764 40.6631637,27.4438202 C40.6631637,30.048764 38.8358445,32.2525 36.3124037,32.9909551 C36.9028639,33.1653933 37.5244011,33.258427 38.1770151,33.258427 C41.6079002,33.258427 44.3923866,30.6534831 44.3923866,27.4438202 C44.3923866,24.2341573 41.6079002,21.6292135 38.1770151,21.6292135 Z" id="Combined-Shape-Copy" fill="#FFFFFF" fill-rule="nonzero"></path>
    </g>
</svg>