<?xml version="1.0" encoding="UTF-8"?>
<svg width="56px" height="56px" viewBox="0 0 56 56" version="1.1" xmlns="http://www.w3.org/2000/svg" xmlns:xlink="http://www.w3.org/1999/xlink">
    <!-- Generator: Sketch 52.2 (67145) - http://www.bohemiancoding.com/sketch -->
    <title>game_iconVOOC</title>
    <desc>Created with Sketch.</desc>
    <g id="game_iconVOOC" stroke="none" stroke-width="1" fill="none" fill-rule="evenodd">
        <g id="ic_memory">
            <polygon id="Bounds" fill-opacity="0" fill="#FF0000" points="0 0 56 0 56 56 0 56"></polygon>
            <rect id="Rectangle" stroke="#FFFFFF" opacity="0.800000012" x="0.5" y="0.5" width="55" height="55" rx="10"></rect>
        </g>
        <g id="Group" transform="translate(20.000000, 11.000000)" fill="#FFFFFF">
            <path d="M11.088,20 L12.8,16.8 L9.6,16.8 L9.6,8 L3.2,20 L6.4,20 L6.4,28.8 L11.088,20 Z M16,20 L16,29.872 C16,31.04 15.04,32 13.856,32 L2.128,32 C0.96,32 0,31.04 0,29.872 L0,20 L0,5.328 C0,4.16 0.96,3.2 2.128,3.2 L4.8,3.2 L4.8,0 L11.2,0 L11.2,3.2 L13.872,3.2 C15.04,3.2 16,4.16 16,5.328 L16,20 Z" id="Combined-Shape"></path>
        </g>
    </g>
</svg>