<?xml version="1.0" encoding="UTF-8"?>
<svg width="134px" height="30px" viewBox="0 0 134 30" version="1.1" xmlns="http://www.w3.org/2000/svg" xmlns:xlink="http://www.w3.org/1999/xlink">
    <!-- Generator: Sketch 52.5 (67469) - http://www.bohemiancoding.com/sketch -->
    <title>Group 17</title>
    <desc>Created with Sketch.</desc>
    <g id="Page-1" stroke="none" stroke-width="1" fill="none" fill-rule="evenodd">
        <g id="主页面" transform="translate(-121.000000, -926.000000)" fill="#333333">
            <g id="Group-17" transform="translate(121.000000, 926.000000)">
                <path d="M127.754887,7.6392381 L102.760086,7.6392381 C100.737256,7.6392381 100.003582,7.85019048 99.2642064,8.24685714 C98.5243553,8.64304762 97.9441638,9.22495238 97.5488163,9.96638095 C97.1529936,10.7073333 96.9424901,11.4425714 96.9424901,13.4697143 L96.9424901,23.5744762 C96.9424901,25.601619 97.1529936,26.3368571 97.5488163,27.0778095 C97.9441638,27.8192381 98.5243553,28.4011429 99.2642064,28.7973333 C100.003582,29.1935238 100.737256,29.4044762 102.760086,29.4044762 L127.754887,29.4044762 C129.777717,29.4044762 130.511391,29.1935238 131.251242,28.7973333 C131.990618,28.4011429 132.571284,27.8192381 132.966632,27.0778095 C133.361979,26.3368571 133.572958,25.601619 133.572958,23.5744762 L133.572958,13.4697143 C133.572958,11.4425714 133.361979,10.7073333 132.966632,9.96638095 C132.571284,9.22495238 131.990618,8.64304762 131.251242,8.24685714 C130.511391,7.85019048 129.777717,7.6392381 127.754887,7.6392381 M127.754887,9.26352381 C129.571015,9.26352381 130.032887,9.43590476 130.487157,9.6792381 C130.940951,9.92257143 131.294483,10.2768571 131.537299,10.7320952 C131.780114,11.1868571 131.952128,11.6497143 131.952128,13.4697143 L131.952128,23.5744762 C131.952128,25.394 131.780114,25.8573333 131.537299,26.3120952 C131.294483,26.7673333 130.940951,27.121619 130.486682,27.3649524 C130.032887,27.6082857 129.571015,27.7806667 127.754887,27.7806667 L102.760086,27.7806667 C100.944433,27.7806667 100.482561,27.6082857 100.028291,27.3649524 C99.574022,27.121619 99.2209652,26.7673333 98.9776745,26.3120952 C98.735334,25.8573333 98.5633199,25.394 98.5633199,23.5744762 L98.5633199,13.4697143 C98.5633199,11.6497143 98.735334,11.1868571 98.9776745,10.7320952 C99.2209652,10.2768571 99.574022,9.92257143 100.028291,9.6792381 C100.482561,9.43590476 100.943958,9.26352381 102.760086,9.26352381 L127.754887,9.26352381" id="Fill-1"></path>
                <path d="M110.951715,20.5791905 C111.304296,20.7701429 111.666857,20.9782381 112.038921,21.203 C112.410984,21.4272857 112.777821,21.6591905 113.140382,21.8982381 C113.502942,22.1368095 113.855523,22.3758571 114.198601,22.6144286 C114.542155,22.8534762 114.856722,23.083 115.143254,23.303 L114.213332,24.593 C113.936779,24.363 113.634091,24.1315714 113.304793,23.8977619 C112.97597,23.6634762 112.634793,23.4315714 112.282211,23.2025238 C111.92963,22.9725238 111.566594,22.753 111.195006,22.543 C110.822942,22.333 110.460382,22.1325238 110.1078,21.940619 L110.951715,20.5791905 Z M103.098935,15.9063333 C103.241963,15.8963333 103.365509,15.8849048 103.470523,15.8696667 C103.575538,15.8558571 103.671048,15.8368095 103.757055,15.8125238 C103.842587,15.7887143 103.928594,15.755381 104.014126,15.7120476 C104.100133,15.6691905 104.195169,15.6191905 104.300183,15.5620476 C104.605722,15.3901429 104.946424,15.170619 105.32324,14.9025238 C105.69958,14.635381 106.097779,14.3339524 106.51736,13.9996667 C105.888226,14.0282381 105.291878,14.0496667 104.729268,14.0639524 C104.167133,14.0782381 103.656318,14.085381 103.199197,14.085381 L102.970162,12.5801429 C103.637311,12.5901429 104.427055,12.5777619 105.337495,12.5444286 C106.247935,12.5110952 107.189736,12.4658571 108.162424,12.4082381 C109.135587,12.3510952 110.091169,12.2791905 111.030594,12.1934762 C111.969545,12.1072857 112.802055,12.0168095 113.526701,11.920619 L113.94153,13.4115714 C113.073857,13.5168095 112.141559,13.6101429 111.145112,13.6910952 C110.148665,13.7725238 109.154119,13.8420476 108.162424,13.8991905 L108.505977,14.2001429 C108.171928,14.4968095 107.792736,14.8020476 107.368403,15.1172857 C106.94407,15.4325238 106.536367,15.705381 106.145772,15.9344286 C106.708382,15.925381 107.25436,15.910619 107.783708,15.8915714 C108.31258,15.8725238 108.801538,15.8439524 109.24963,15.8058571 C109.650204,15.4996667 110.0408,15.1820476 110.422367,14.8525238 C110.803935,14.5225238 111.18075,14.180619 111.552814,13.8272857 L112.697041,14.945381 C111.790878,15.7577619 110.856679,16.513 109.89302,17.210619 C108.929835,17.9082381 107.971878,18.5101429 107.018197,19.0168095 C107.332765,19.0072857 107.683445,18.993 108.069765,18.9734762 C108.455609,18.9544286 108.851431,18.9358571 109.257233,18.9163333 C109.662084,18.8972857 110.069786,18.873 110.479864,18.8444286 C110.889942,18.8158571 111.276261,18.7872857 111.638346,18.7587143 C111.447325,18.5672857 111.26153,18.3810952 111.080488,18.1996667 C110.899445,18.0182381 110.723155,17.8463333 110.55114,17.6834762 L111.652601,16.6082381 C112.205708,17.105381 112.756438,17.6525238 113.304793,18.2496667 C113.853148,18.8468095 114.342105,19.4182381 114.77119,19.9625238 L113.569467,20.980619 C113.378445,20.7420476 113.178871,20.4977619 112.968843,20.2496667 C112.387226,20.2877619 111.805133,20.3210952 111.223516,20.3496667 C110.641899,20.3782381 110.055055,20.4072857 109.46441,20.4358571 L109.46441,23.1591905 C109.454906,23.4934762 109.428296,23.7682381 109.38553,23.9834762 C109.342765,24.1987143 109.254382,24.3682381 109.120857,24.4925238 C108.987332,24.6168095 108.801538,24.7096667 108.562999,24.7720476 C108.32446,24.8344286 108.009892,24.8791905 107.618821,24.9082381 C107.351772,24.9272857 107.099452,24.9415714 106.860913,24.9515714 C106.622374,24.960619 106.407594,24.965381 106.217523,24.965381 L105.902481,23.3168095 C106.07402,23.3458571 106.245559,23.3649048 106.417573,23.3744286 C106.589112,23.3839524 106.774906,23.3839524 106.975431,23.3744286 C107.337516,23.3649048 107.571304,23.3191905 107.676318,23.2382381 C107.781332,23.1568095 107.833601,22.9872857 107.833601,22.7296667 L107.833601,20.5077619 C107.032452,20.5358571 106.238431,20.5601429 105.452013,20.5791905 C104.665119,20.5982381 103.871098,20.6125238 103.070424,20.6220476 L102.884155,18.9449048 C103.103687,18.9449048 103.318467,18.9282381 103.52802,18.8949048 C103.737573,18.8615714 103.966609,18.7968095 104.214651,18.7015714 C104.758254,18.4910952 105.277623,18.2591905 105.773708,18.0063333 C106.269318,17.7525238 106.760651,17.4782381 107.247233,17.1815714 C106.541119,17.210619 105.83358,17.2368095 105.122715,17.260619 C104.412325,17.2844286 103.804098,17.3010952 103.29946,17.3110952 L103.098935,15.9063333 Z M101.84019,23.3601429 C102.202275,23.1496667 102.543452,22.9372857 102.863247,22.7220476 C103.182091,22.5072857 103.497133,22.2872857 103.806949,22.0625238 C104.116765,21.8387143 104.424204,21.6039524 104.729268,21.360619 C105.034332,21.1168095 105.349374,20.8563333 105.673921,20.5791905 L106.73214,21.7687143 C106.140545,22.3039524 105.509034,22.813 104.836658,23.295381 C104.164757,23.7777619 103.456743,24.2391905 102.712616,24.6787143 L101.84019,23.3601429 Z" id="Fill-4"></path>
                <path d="M124.684101,23.2884286 C125.017676,23.3074762 125.317988,23.317 125.585038,23.317 C125.852087,23.317 126.095378,23.3122381 126.31491,23.3027143 C126.629477,23.2836667 126.834279,23.214619 126.929789,23.0950952 C127.0253,22.9755714 127.072818,22.7484286 127.072818,22.4136667 L127.072818,11.7917619 L128.675116,11.7917619 L128.675116,22.9589048 C128.675116,23.2931905 128.648506,23.5727143 128.596236,23.797 C128.543967,24.0217619 128.453208,24.2108095 128.32491,24.3631905 C128.195662,24.5160476 128.019371,24.6331905 127.795087,24.714619 C127.571279,24.7955714 127.287598,24.8508095 126.944045,24.879381 C126.609995,24.9079524 126.2883,24.929381 125.978484,24.9441429 C125.668669,24.9584286 125.33747,24.9650952 124.984413,24.9650952 L124.684101,23.2884286 Z M124.19752,21.5965238 L125.799818,21.5965238 L125.799818,13.1108095 L124.19752,13.1108095 L124.19752,21.5965238 Z M116.37325,23.9622381 C117.117378,23.4365238 117.779775,22.9084286 118.361867,22.3779524 C118.943009,21.8479524 119.455726,21.2955714 119.899066,20.7222381 C120.342882,20.1489048 120.719697,19.5450952 121.029513,18.909381 C121.338853,18.2736667 121.594499,17.5831905 121.794548,16.8374762 L119.491364,16.8374762 C119.415335,17.009381 119.336456,17.1817619 119.255676,17.3536667 C119.174421,17.5255714 119.090789,17.6931905 119.005257,17.8555714 C119.262804,18.0465238 119.534605,18.2689048 119.820662,18.5217619 C120.106718,18.7750952 120.364265,19.0165238 120.5933,19.2460476 L119.563116,20.5212857 C119.353087,20.3022381 119.13403,20.0822381 118.904995,19.8627143 C118.676435,19.6427143 118.442648,19.4322381 118.204109,19.2312857 C118.03257,19.499381 117.853903,19.7622381 117.667633,20.0203333 C117.481839,20.2784286 117.288917,20.5360476 117.088392,20.7941429 L115.872413,19.7189048 C116.568548,18.8112857 117.157293,17.877 117.639123,16.9165238 C118.120477,15.9565238 118.513924,14.9122381 118.819463,13.7841429 L116.773825,13.7841429 L116.773825,12.2503333 L123.825931,12.2503333 L123.825931,13.7841429 L120.507293,13.7841429 C120.373293,14.3198571 120.230265,14.8355714 120.078208,15.3327143 L123.36786,15.3327143 L123.36786,16.7660476 C123.196321,17.6741429 122.95113,18.5150952 122.631335,19.2889048 C122.311541,20.0631905 121.913818,20.7941429 121.437215,21.4822381 C120.960137,22.1698571 120.397527,22.8222381 119.749385,23.4389048 C119.100293,24.0550952 118.370896,24.659381 117.560243,25.2522381 L116.37325,23.9622381 Z" id="Fill-6"></path>
                <path d="M5.19900993,4.13338095 L5.19900993,13.7890952 L10.3979248,13.7890952 C13.4480879,13.7890952 15.1805844,12.1219524 15.1805844,8.96147619 C15.1805844,5.80052381 13.4480879,4.13338095 10.3979248,4.13338095 L5.19900993,4.13338095 Z M11.6457404,4.76190476e-05 C16.9140312,4.76190476e-05 20.3799745,3.50814286 20.3799745,8.96147619 C20.3799745,13.581 17.8848184,16.811 13.898556,17.6795714 L22.182322,29.3848095 L15.8738681,29.3848095 L8.3527617,17.9224286 L5.19900993,17.9224286 L5.19900993,29.3848095 L9.50354612e-05,29.3848095 L9.50354612e-05,4.76190476e-05 L11.6457404,4.76190476e-05 Z" id="Fill-8"></path>
                <path d="M26.6191475,16.2553333 L36.5318213,16.2553333 C36.1507291,12.8515238 34.4519702,11.0105714 31.6104099,11.0105714 C29.0107149,11.0105714 27.1043035,12.8515238 26.6191475,16.2553333 Z M26.5150837,19.7634286 C26.7925872,23.8272381 29.0107149,26.0158095 32.2338426,26.0158095 C34.9029135,26.0158095 36.185417,24.799619 36.9827645,22.889619 L40.9685518,24.7653333 C39.6860482,27.822 37.0863532,29.8710476 32.2690057,29.8710476 C25.6835234,29.8710476 21.662573,25.182 21.662573,18.5129524 C21.662573,11.7400952 25.9258638,7.15533333 31.6446227,7.15533333 C37.7449489,7.15533333 41.4532326,11.6358095 41.4532326,18.5129524 C41.4532326,18.964381 41.4190199,19.4858095 41.349644,19.7634286 L26.5150837,19.7634286 Z" id="Fill-11"></path>
                <path d="M47.8659404,7.60671429 C47.9353163,8.09290476 48.0393801,9.27385714 48.108756,10.9414762 C49.7376638,8.37052381 52.3373589,7.15528571 55.6298624,7.15528571 C60.2395574,7.15528571 63.0815929,10.003381 63.0815929,15.0748095 L63.0815929,29.3848095 L58.2637702,29.3848095 L58.2637702,15.838619 C58.2637702,12.6776667 56.7389262,11.2190952 53.8622028,11.2190952 C50.5692241,11.2190952 48.5592241,13.5462381 48.5592241,17.3324286 L48.5592241,29.3848095 L43.7418766,29.3848095 L43.7418766,12.6429048 C43.7418766,10.4548095 43.6378128,8.4057619 43.5684369,7.60671429 L47.8659404,7.60671429 Z" id="Fill-13"></path>
                <path d="M75.559844,11.0107143 C72.2673404,11.0107143 70.0492128,13.997381 70.0492128,18.5130952 C70.0492128,23.0283333 72.2673404,26.0159524 75.559844,26.0159524 C78.8528227,26.0159524 81.0709504,23.0283333 81.0709504,18.5130952 C81.0709504,13.997381 78.8528227,11.0107143 75.559844,11.0107143 M75.559844,7.155 C81.5214184,7.155 85.8540851,11.6707143 85.8540851,18.5130952 C85.8540851,25.3211905 81.5214184,29.8707143 75.559844,29.8707143 C69.5640567,29.8707143 65.2313901,25.3211905 65.2313901,18.5130952 C65.2313901,11.6707143 69.5640567,7.155 75.559844,7.155" id="Fill-15"></path>
            </g>
        </g>
    </g>
</svg>