<?xml version="1.0" encoding="UTF-8"?>
<svg width="64px" height="64px" viewBox="0 0 64 64" version="1.1" xmlns="http://www.w3.org/2000/svg" xmlns:xlink="http://www.w3.org/1999/xlink">
    <!-- Generator: Sketch 52.2 (67145) - http://www.bohemiancoding.com/sketch -->
    <title>camera_iconHDR</title>
    <desc>Created with Sketch.</desc>
    <g id="camera_iconHDR" stroke="none" stroke-width="1" fill="none" fill-rule="evenodd">
        <rect id="Rectangle" fill-opacity="0" fill="#FFFFFF" x="0" y="0" width="64" height="64"></rect>
        <path d="M15.2,29.2 L9.6,29.2 L9.6,18 L4,18 L4,46 L9.6,46 L9.6,34.8 L15.2,34.8 L15.2,46 L20.8,46 L20.8,18 L15.2,18 L15.2,29.2 L15.2,29.2 Z M34.8,18 L23.6,18 L23.6,46 L34.8,46 C37.88,46 40.4,43.48 40.4,40.4 L40.4,23.6 C40.4,20.52 37.88,18 34.8,18 L34.8,18 Z M34.8,40.4 L29.2,40.4 L29.2,23.6 L34.8,23.6 L34.8,40.4 L34.8,40.4 Z M60,29.2 L60,23.6 C60,20.52 57.48,18 54.4,18 L43.2,18 L43.2,46 L48.8,46 L48.8,34.8 L51.6,34.8 L54.4,46 L60,46 L56.668,34.324 C58.628,33.456 60,31.496 60,29.2 L60,29.2 Z M54.4,29.2 L48.8,29.2 L48.8,23.6 L54.4,23.6 L54.4,29.2 L54.4,29.2 Z" id="Combined-Shape" fill="#FFFFFF"></path>
    </g>
</svg>