<svg height="757" viewBox="0 0 362 757" width="362" xmlns="http://www.w3.org/2000/svg"><g fill="#fff"><path d="m25.0885478 22.411406c-.2272133-.5033812-.0033349-1.095645.5000462-1.3228582.5033812-.2272133 1.095645-.0033349 1.3228582.5000462l143.4030408 317.703252c.227214.503381.003335 1.095645-.500046 1.322858s-1.095645.003335-1.322858-.500046z"/><path d="m197.088548 409.411406c-.227213-.503381-.003335-1.095645.500046-1.322858s1.095645-.003335 1.322858.500046l143.403041 317.703252c.227214.503381.003335 1.095645-.500046 1.322858s-1.095645.003335-1.322858-.500046z"/><path d="m152.24 386.6c0 .74667-.133332 1.44333-.4 2.09s-.639998 1.206664-1.12 1.68-1.049997.846665-1.71 1.12-1.383329.41-2.17.41c-.800004 0-1.529997-.136665-2.19-.41s-1.229998-.656664-1.71-1.15-.849999-1.079997-1.11-1.76-.39-1.426663-.39-2.24c0-.600003.053333-1.183331.16-1.75.106667-.56667.273332-1.139997.5-1.72s.513332-1.179997.86-1.8.759998-1.28333 1.24-1.99l2.94-4.36h2.42l-3.76 5.26c-.293335.413335-.559999.813331-.8 1.2s-.446666.753332-.62 1.1c.786671-.640003 1.706661-.96 2.76-.96.733337 0 1.41333.129999 2.04.39s1.166664.619998 1.62 1.08.806665 1.016663 1.06 1.67.38 1.366663.38 2.14zm-8.76 0c0 .506669.079999.976664.24 1.41.160001.433335.386665.806665.68 1.12s.646665.556666 1.06.73.873331.26 1.38.26.966665-.086666 1.38-.26.766665-.416665 1.06-.73.519999-.686665.68-1.12c.160001-.433336.24-.903331.24-1.41 0-1.093339-.306664-1.949997-.92-2.57s-1.426662-.93-2.44-.93c-.973338 0-1.759997.28333-2.36.85-.600003.566669-.933333 1.356662-1 2.37zm13.02 2.48c.400002 0 .723332.123332.97.37s.37.569998.37.97c0 .413335-.123332.743332-.37.99s-.569998.37-.97.37c-.413335 0-.743332-.123332-.99-.37s-.37-.576665-.37-.99c0-.400002.123332-.723332.37-.97s.576665-.37.99-.37zm15.06-2.48c0 .74667-.133332 1.44333-.4 2.09s-.639998 1.206664-1.12 1.68-1.049997.846665-1.71 1.12-1.383329.41-2.17.41c-.800004 0-1.529997-.136665-2.19-.41s-1.229998-.656664-1.71-1.15-.849999-1.079997-1.11-1.76-.39-1.426663-.39-2.24c0-.600003.053333-1.183331.16-1.75.106667-.56667.273332-1.139997.5-1.72s.513332-1.179997.86-1.8.759998-1.28333 1.24-1.99l2.94-4.36h2.42l-3.76 5.26c-.293335.413335-.559999.813331-.8 1.2s-.446666.753332-.62 1.1c.786671-.640003 1.706661-.96 2.76-.96.733337 0 1.41333.129999 2.04.39s1.166664.619998 1.62 1.08.806665 1.016663 1.06 1.67.38 1.366663.38 2.14zm-8.76 0c0 .506669.079999.976664.24 1.41.160001.433335.386665.806665.68 1.12s.646665.556666 1.06.73.873331.26 1.38.26.966665-.086666 1.38-.26.766665-.416665 1.06-.73.519999-.686665.68-1.12c.160001-.433336.24-.903331.24-1.41 0-1.093339-.306664-1.949997-.92-2.57s-1.426662-.93-2.44-.93c-.973338 0-1.759997.28333-2.36.85-.600003.566669-.933333 1.356662-1 2.37zm21.04 3.96c1.493341-.320002 2.749995-.673331 3.77-1.06s1.816664-.819998 2.39-1.3c.520003-.413335.919999-.893331 1.2-1.44h-7.36v-2.14h2.16v-4.8h5.72v-1.52h2.26v1.52h5.8v4.8h2.12v2.14h-7.52c.58667.866671 1.489994 1.609997 2.71 2.23s2.836657 1.123331 4.85 1.51l-.98 2.28c-1.29334-.306668-2.456661-.669998-3.49-1.09-1.033338-.420002-1.909996-.883331-2.63-1.39-.386669-.266668-.733332-.559998-1.04-.88s-.593332-.673331-.86-1.06c-.70667.960005-1.739993 1.816663-3.1 2.57s-3.033323 1.383331-5.02 1.89zm13.52-16.72v1.56h4.28v2.08h-4.28v1.2h-2.22v-1.2h-4.54v1.2h-2.22v-1.2h-4.3v-2.08h4.3v-1.56h2.22v1.56h4.54v-1.56zm-3.38 8.04v2.74h3.56v-2.74zm-5.78 2.74h3.52v-2.74h-3.52zm23.2 4.94c.560003.04 1.069998.063333 1.53.07s.923331.003333 1.39-.01c.253335 0 .456666-.023333.61-.07s.27-.126666.35-.24.133333-.263332.16-.45.04-.426665.04-.72v-8.88h-11.42v-2.3h11.42v-3.24h2.44v3.24h3.82v2.3h-3.82v9.68c0 .520003-.03.969998-.09 1.35s-.199999.693332-.42.94-.536665.439999-.95.58-.97333.236666-1.68.29c-.480002.026667-.953331.053333-1.42.08s-.939998.033333-1.42.02zm-3.52-9.64c.346668.320002.739998.699998 1.18 1.14s.883331.893331 1.33 1.36.866665.926664 1.26 1.38.723332.846665.99 1.18l-1.86 1.74c-.280001-.373335-.616665-.796664-1.01-1.27s-.803331-.946664-1.23-1.42-.846665-.923331-1.26-1.35-.766665-.786665-1.06-1.08z"/></g></svg>