<?xml version="1.0" standalone="no"?>
<!DOCTYPE svg PUBLIC "-//W3C//DTD SVG 20010904//EN"
 "http://www.w3.org/TR/2001/REC-SVG-20010904/DTD/svg10.dtd">
<svg version="1.0" xmlns="http://www.w3.org/2000/svg"
 width="125.000000pt" height="50.000000pt" viewBox="0 0 125.000000 50.000000"
 preserveAspectRatio="xMidYMid meet">

<g transform="translate(0.000000,50.000000) scale(0.100000,-0.100000)"
fill="#000000" stroke="none">
<path d="M470 415 c-10 -13 -10 -19 5 -35 16 -18 19 -18 41 -3 23 15 24 17 8
34 -21 23 -37 24 -54 4z"/>
<path d="M630 368 c-56 -16 -55 -25 3 -20 89 7 137 -29 137 -102 0 -75 -79
-121 -167 -97 -60 16 -77 41 -75 109 3 64 -7 86 -34 80 -17 -3 -19 -15 -22
-114 -2 -90 0 -113 13 -124 20 -16 49 5 42 32 -6 23 -5 23 46 -4 57 -29 159
-30 207 -2 66 38 91 125 55 193 -28 55 -113 75 -205 49z"/>
<path d="M955 346 c-144 -73 -96 -228 75 -243 145 -13 252 93 188 186 -33 49
-78 73 -151 78 -52 4 -70 1 -112 -21z m163 -45 c84 -60 24 -161 -96 -161 -48
0 -103 35 -117 73 -31 89 123 152 213 88z"/>
<path d="M30 324 c0 -27 142 -212 173 -225 44 -19 78 5 157 110 71 96 85 131
52 131 -11 0 -46 -38 -92 -100 -46 -62 -80 -99 -90 -98 -8 2 -47 46 -87 98
-70 92 -113 124 -113 84z"/>
</g>
</svg>
