<?xml version="1.0" encoding="UTF-8"?>
<svg width="354px" height="88px" viewBox="0 0 354 88" version="1.1" xmlns="http://www.w3.org/2000/svg" xmlns:xlink="http://www.w3.org/1999/xlink">
    <!-- Generator: Sketch 46.2 (44496) - http://www.bohemiancoding.com/sketch -->
    <title>findx</title>
    <desc>Created with Sketch.</desc>
    <defs></defs>
    <g id="Page-1" stroke="none" stroke-width="1" fill="none" fill-rule="evenodd">
        <g id="findx">
            <path d="M226.914107,1.534357 C232.880182,1.534357 238.393229,3.96021 242.036488,8.194813 C244.577137,11.140891 246.860194,15.595008 246.860194,21.585721 C246.860194,27.863707 244.575457,32.036712 242.036488,34.98279 C238.393229,39.216272 232.880182,41.641565 226.914107,41.641565 L212.02244,41.641565 C210.360966,41.641565 209.014763,40.295362 209.014763,38.632209 C209.014763,36.970175 210.360966,35.622292 212.02244,35.622292 L226.914107,35.622292 C231.12631,35.622292 234.975643,33.958578 237.474854,31.055059 C239.157047,29.104073 240.530689,26.950933 240.87564,22.452017 C240.897479,22.173145 240.897479,21.006137 240.87564,20.730625 C240.532369,16.22723 239.157047,14.07409 237.474854,12.120864 C234.975643,9.219024 231.12631,7.554191 226.914107,7.554191 L212.02244,7.554191 C210.360966,7.554191 209.014763,6.207428 209.014763,4.545954 C209.014763,2.8828 210.360966,1.534357 212.02244,1.534357 L226.914107,1.534357 Z M327.972264,24.671236 L327.973944,24.672916 C329.109593,25.810804 329.109593,27.653153 327.973944,28.788802 L314.469359,42.351625 C313.33147,43.489514 311.487442,43.489514 310.349553,42.351625 C309.212225,41.215417 309.212225,39.371388 310.349553,38.23406 L323.854139,24.669556 C324.990907,23.533347 326.834376,23.535027 327.972264,24.671236 Z M339.047637,24.669556 L352.602061,38.298458 C353.73939,39.434666 353.73939,41.280375 352.602061,42.416584 C351.465853,43.554472 349.621824,43.554472 348.484496,42.416584 L334.928391,28.788802 C333.792183,27.653153 333.792183,25.810804 334.928391,24.672916 L334.930071,24.671236 C336.06796,23.535027 337.911989,23.533347 339.047637,24.669556 Z M314.469359,0.917815 L327.973944,14.481198 C329.109593,15.618527 329.109593,17.460876 327.973944,18.597084 L327.972264,18.600444 C326.834376,19.736093 324.990907,19.737773 323.854139,18.600444 L310.349553,5.03762 C309.212225,3.899732 309.212225,2.055703 310.349553,0.917815 C311.487442,-0.219514 313.33147,-0.219514 314.469359,0.917815 Z M334.930071,18.600444 L334.928391,18.597084 C333.792183,17.460876 333.792183,15.618527 334.928391,14.481198 L348.484496,0.853416 C349.621824,-0.284472 351.465853,-0.284472 352.602061,0.853416 C353.73939,1.990745 353.73939,3.834774 352.602061,4.972662 L339.047637,18.600444 C337.911989,19.737773 336.06796,19.736093 334.930071,18.600444 Z M143.564339,4.110286 C141.173765,1.521478 137.296432,0.853976 133.955005,2.320576 C130.724455,3.739016 128.785788,7.104523 128.785788,10.632985 L128.785788,38.712286 C128.785788,40.38944 130.145991,41.749642 131.822584,41.749642 C133.499738,41.749642 134.85994,40.38944 134.85994,38.712286 L134.85994,10.248276 C134.85994,8.6428 136.081826,8.013378 136.456456,7.856022 C136.831085,7.700346 138.142009,7.280918 139.277657,8.412087 L149.62505,21.576762 C150.807738,22.794728 152.758164,22.807047 153.95597,21.605321 C155.124658,20.429913 155.136978,18.536046 153.98173,17.346639 L143.564339,4.110286 Z M163.368189,2.444892 L163.366509,2.444892 C161.694956,2.444892 160.340353,3.798935 160.340353,5.471048 L160.340353,38.721806 C160.340353,40.39336 161.694956,41.749642 163.366509,41.749642 L163.368189,41.749642 C165.039743,41.749642 166.394345,40.39336 166.394345,38.721806 L166.394345,5.471048 C166.394345,3.798935 165.039743,2.444892 163.368189,2.444892 Z M83.093856,1.419561 C81.446381,1.419561 80.110818,2.976877 80.110818,4.624912 L80.110818,38.781724 C80.110818,40.429199 81.446381,41.764762 83.093856,41.764762 C84.74021,41.764762 86.075773,40.429199 86.075773,38.781724 L86.075773,4.403158 C86.075773,2.755124 84.74021,1.419561 83.093856,1.419561 Z M34.556642,1.508038 L8.528563,1.508038 C3.818534,1.508038 0,5.326012 0,10.036602 L0,38.794044 C0,40.450478 1.345643,41.795561 3.002077,41.795561 C4.660191,41.795561 6.003594,40.450478 6.003594,38.794044 L6.003594,10.036602 C6.003594,8.64112 7.134762,7.511632 8.528563,7.511632 L34.556642,7.511632 C36.215316,7.511632 37.558158,6.166549 37.558158,4.510115 C37.558158,2.852001 36.215316,1.508038 34.556642,1.508038 Z M29.636058,23.44935 L17.547113,23.44935 C15.890679,23.44935 14.547277,24.793312 14.547277,26.449746 C14.547277,28.10786 15.890679,29.451823 17.547113,29.451823 L29.636058,29.451823 C31.293052,29.451823 32.636455,28.10786 32.636455,26.449746 C32.636455,24.793312 31.293052,23.44935 29.636058,23.44935 Z M301.323723,21.63668 C301.323723,21.63332 301.325963,21.63164 301.325963,21.62828 L301.325963,21.64508 C301.325963,21.6434 301.323723,21.64004 301.323723,21.63668 Z" id="find-x-" fill="#1E1E1E" fill-rule="nonzero"></path>
            <path d="M5.976,71.536 L5.976,68.896 L12.768,68.896 L12.768,65.488 L15.768,65.488 L15.768,68.896 L22.608,68.896 L22.608,71.536 L15.768,71.536 L15.768,74.728 L24.456,74.728 L24.456,77.368 L17.112,77.368 C19.2880109,80.1520139 22.2159816,82.1199942 25.896,83.272 C25.0639958,83.9600034 24.3760027,84.8159949 23.832,85.84 C20.423983,84.4159929 17.6880103,82.208015 15.624,79.216 L15.768,80.056 L15.768,87.76 L12.768,87.76 L12.768,80.056 L12.912,79.264 C10.8799898,82.3360154 8.21601648,84.6559922 4.92,86.224 C4.31199696,85.3919958 3.5280048,84.680003 2.568,84.088 C6.2480184,82.4399918 9.21598872,80.2000142 11.472,77.368 L4.128,77.368 L4.128,74.728 L12.768,74.728 L12.768,71.536 L5.976,71.536 Z M121.272,87.76 L121.272,80.008 L121.368,79.288 C119.527991,82.2000146 116.944017,84.5679909 113.616,86.392 C112.943997,85.5439958 112.136005,84.8000032 111.192,84.16 C114.648017,82.5119918 117.431989,80.4080128 119.544,77.848 L112.464,77.848 L112.464,75.304 L117.744,75.304 C116.879996,74.103994 115.864006,72.9200058 114.696,71.752 L116.928,70.48 L113.568,70.48 L113.568,67.936 L121.272,67.936 L121.272,65.488 L124.248,65.488 L124.248,67.936 L131.904,67.936 L131.904,70.48 L128.688,70.48 L130.704,71.656 C129.855996,72.9360064 128.880006,74.1519942 127.776,75.304 L133.056,75.304 L133.056,77.848 L126,77.848 C127.98401,80.3760126 130.759982,82.2719937 134.328,83.536 C133.463996,84.3200039 132.808002,85.1759954 132.36,86.104 C128.711982,84.4399917 125.968009,82.1440146 124.128,79.216 L124.248,80.056 L124.248,87.76 L121.272,87.76 Z M125.304,73.984 C126.360005,72.9439948 127.327996,71.7760065 128.208,70.48 L124.248,70.48 L124.248,75.304 L127.416,75.304 C126.839997,74.695997 126.136004,74.2560014 125.304,73.984 Z M120.096,73.936 L118.464,75.304 L121.272,75.304 L121.272,70.48 L117.144,70.48 C118.392006,71.7600064 119.375996,72.9119949 120.096,73.936 Z M220.272,71.584 L220.272,69.112 L224.4,69.112 C223.887997,67.9439942 223.344003,66.9200044 222.768,66.04 L225.576,65.368 C226.232003,66.3440049 226.775998,67.3759946 227.208,68.464 L225.24,69.112 L229.152,69.112 L229.152,69.76 C230.560007,68.2079922 231.511998,66.6880074 232.008,65.2 L234.552,65.92 C234.456,66.2080014 234.272001,66.6399971 234,67.216 C233.952,67.2960004 233.92,67.3599998 233.904,67.408 L241.992,67.408 L241.992,69.736 L232.56,69.736 C232.383999,70.0240014 232.200001,70.2879988 232.008,70.528 L233.616,70.528 L233.616,71.872 L237.36,71.872 L237.36,70.552 L239.952,70.552 L239.952,71.872 L241.464,71.872 L241.464,74.032 L239.952,74.032 L239.952,81.448 L242.256,81.448 L242.256,83.704 L238.704,83.704 C240.288008,84.6320046 241.383997,85.3199978 241.992,85.768 L240.72,88 C239.407993,87.0239951 237.904008,86.032005 236.208,85.024 L237.648,83.704 L233.616,83.704 L235.248,84.976 C233.903993,86.2400063 232.512007,87.2319964 231.072,87.952 C230.351996,87.151996 229.616004,86.552002 228.864,86.152 C230.432008,85.4319964 231.743995,84.6160046 232.8,83.704 L229.272,83.704 L229.272,81.448 L231,81.448 L231,74.032 L229.752,74.032 L229.752,71.872 L231,71.872 L231,71.608 C230.311997,71.1119975 229.696003,70.7840008 229.152,70.624 L229.152,71.584 L224.832,71.584 L224.832,73.72 L228.744,73.72 L228.72,83.608 C228.72,85.8640113 227.800009,86.992 225.96,86.992 C225.607998,86.992 225.232002,86.9680002 224.832,86.92 C224.736,85.7839943 224.512002,84.8080041 224.16,83.992 C224.640002,84.0720004 225.039998,84.112 225.36,84.112 C225.968003,84.1440002 226.264,83.7520041 226.248,82.936 L226.272,76.168 L224.808,76.168 C224.728,80.8880236 223.832009,84.7039854 222.12,87.616 C221.447997,86.9759968 220.688004,86.4800018 219.84,86.128 C221.568009,83.2159854 222.408,78.9760278 222.36,73.408 L222.36,71.584 L220.272,71.584 Z M233.616,80.128 L233.616,81.448 L237.36,81.448 L237.36,80.128 L233.616,80.128 Z M233.616,74.032 L233.616,75.328 L237.36,75.328 L237.36,74.032 L233.616,74.032 Z M233.616,77.08 L233.616,78.376 L237.36,78.376 L237.36,77.08 L233.616,77.08 Z M333.744,82.984 C333.391998,82.0559954 332.920003,81.0240057 332.328,79.888 C332.248,82.9120151 331.704005,85.5359889 330.696,87.76 C329.879996,87.0559965 329.064004,86.6160009 328.248,86.44 C329.384006,84.3599896 329.944,81.4960182 329.928,77.848 L328.512,77.848 L328.512,75.424 L329.928,75.424 L329.928,67.672 L331.92,67.672 C332.400002,66.7599954 332.743999,65.9680034 332.952,65.296 L335.568,65.872 C335.359999,66.464003 335.112001,67.063997 334.824,67.672 L337.704,67.672 L337.704,84.64 C337.704,84.7840007 337.696,84.9279993 337.68,85.072 C341.536019,82.671988 343.360001,79.1120236 343.152,74.392 L343.152,70.36 L345.576,70.36 L345.576,74.92 C345.576,76.2640067 345.456001,77.5119942 345.216,78.664 L346.296,78.664 L346.296,83.512 C346.28,84.3920044 346.615997,84.8160002 347.304,84.784 L347.76,84.784 C348.464004,84.8320002 348.911999,84.3920046 349.104,83.464 C349.2,83.0479979 349.303999,82.4320041 349.416,81.616 C350.056003,82.3360036 350.727996,82.8239987 351.432,83.08 C351.416,83.1440003 351.4,83.2319994 351.384,83.344 C351.239999,84.0320034 351.136,84.5119986 351.072,84.784 C350.655998,86.4320082 349.640008,87.2320002 348.024,87.184 L346.776,87.184 C344.82399,87.184 343.848,86.1040108 343.848,83.944 L343.848,82.504 C342.727994,84.4720098 340.920012,86.2479921 338.424,87.832 C338.103998,87.3839978 337.672003,86.9520021 337.128,86.536 C336.631998,87.1120029 335.784006,87.4 334.584,87.4 C334.183998,87.4 333.816002,87.3840002 333.48,87.352 C333.416,86.3759951 333.184002,85.5120038 332.784,84.76 C333.296003,84.8400004 333.815997,84.88 334.344,84.88 C334.984003,84.88 335.304,84.5280035 335.304,83.824 L335.304,82.144 L333.744,82.984 Z M347.064,80.08 L347.064,68.752 L341.664,68.752 L341.664,79.912 L339.048,79.912 L339.048,66.256 L349.656,66.256 L349.656,80.08 L347.064,80.08 Z M333.648,74.8 C333.423999,74.1279966 333.000003,73.1440065 332.376,71.848 L332.376,75.424 L335.304,75.424 L335.304,70.024 L332.376,70.024 L332.376,71.296 L333.888,70.864 C334.368002,71.7920046 334.815998,72.8399942 335.232,74.008 L333.648,74.8 Z M332.376,77.848 C332.376,78.4240029 332.368,78.8559986 332.352,79.144 L333.72,78.688 C334.200002,79.4720039 334.727997,80.559993 335.304,81.952 L335.304,77.848 L332.376,77.848 Z" id="未-来-旗-舰" fill="#333333"></path>
        </g>
    </g>
</svg>