<?xml version="1.0" encoding="UTF-8"?>
<svg width="444px" height="41px" viewBox="0 0 444 41" version="1.1" xmlns="http://www.w3.org/2000/svg" xmlns:xlink="http://www.w3.org/1999/xlink">
    <!-- Generator: Sketch 49.2 (51160) - http://www.bohemiancoding.com/sketch -->
    <title>find more</title>
    <desc>Created with Sketch.</desc>
    <defs>
        <polygon id="path-1" points="0.333968627 0.400054054 27.6850275 0.400054054 27.6850275 40 0.333968627 40"></polygon>
    </defs>
    <g id="Page-1" stroke="none" stroke-width="1" fill="none" fill-rule="evenodd">
        <g id="2560px" transform="translate(-1687.000000, -2139.000000)">
            <g id="2" transform="translate(0.000000, 1440.000000)">
                <g id="find-more" transform="translate(1687.000000, 699.000000)">
                    <g id="Group-3" transform="translate(307.000000, 0.000000)">
                        <mask id="mask-2" fill="white">
                            <use xlink:href="#path-1"></use>
                        </mask>
                        <g id="Clip-2"></g>
                        <path d="M6.13600784,20.2000541 C6.13600784,24.0384324 6.27655686,26.6351892 6.5576549,27.9919459 C6.80306667,29.3492432 7.30377255,30.4470811 8.05867451,31.286 C8.67192941,32.0892432 9.47953725,32.7405946 10.480949,33.2405946 C11.4631451,33.8297838 12.6407922,34.1243784 14.008949,34.1243784 C15.3963216,34.1243784 16.5986745,33.8297838 17.6171059,33.2405946 C18.5822824,32.7405946 19.3542039,32.0892432 19.9345176,31.286 C20.6894196,30.4465405 21.2060471,29.3492432 21.4882431,27.9919459 C21.7506745,26.6351892 21.8829882,24.0384324 21.8829882,20.2000541 C21.8829882,16.3622162 21.7506745,13.7470811 21.4882431,12.3546486 C21.2060471,11.0335676 20.6894196,9.95356757 19.9345176,9.11410811 C19.3542039,8.31086486 18.5822824,7.64167568 17.6171059,7.106 C16.5986745,6.58816216 15.3963216,6.31194595 14.008949,6.27572973 C12.6407922,6.31194595 11.4631451,6.58816216 10.480949,7.106 C9.47953725,7.64167568 8.67192941,8.31086486 8.05867451,9.11410811 C7.30377255,9.95356757 6.80306667,11.033027 6.5576549,12.3541081 C6.27655686,13.7470811 6.13600784,16.3622162 6.13600784,20.2000541 M0.333968627,20.2000541 C0.333968627,15.6654595 0.464635294,12.6314054 0.727066667,11.0962703 C1.00706667,9.56059459 1.43694902,8.32005405 2.01506667,7.37356757 C2.94400784,5.58221622 4.43185098,3.98491892 6.48134118,2.58275676 C8.49624314,1.16275676 11.0096549,0.43627027 14.0226745,0.400054054 C17.0713804,0.43627027 19.6105961,1.166 21.6425176,2.59086486 C23.6574196,3.99843243 25.1117725,5.60167568 26.0044784,7.40059459 C26.6523216,8.34491892 27.0986745,9.58275676 27.3440863,11.1146486 C27.5713804,12.6470811 27.6850275,15.6757297 27.6850275,20.2000541 C27.6850275,24.6535676 27.5713804,27.6643784 27.3440863,29.2314054 C27.0986745,30.798973 26.6523216,32.0557297 26.0039294,32.9995135 C25.1106745,34.798973 23.6563216,36.3838378 21.6425176,37.7557297 C19.609498,39.1811351 17.0702824,39.9287027 14.0226745,40.0000541 C11.0096549,39.9287027 8.49624314,39.1811351 6.48134118,37.7557297 C4.43185098,36.3838378 2.9429098,34.798973 2.01506667,32.9995135 C1.73396863,32.4114054 1.48032157,31.8503243 1.25247843,31.3157297 C1.04275294,30.7638378 0.866517647,30.0692432 0.727066667,29.2314054 C0.464635294,27.6643784 0.333968627,24.6535676 0.333968627,20.2000541" id="Fill-1" fill="#000000" mask="url(#mask-2)"></path>
                    </g>
                    <path d="M273.241268,1 L272.469854,1 C271.330716,1 270.354773,1.71371091 269.933367,2.73210867 L269.924778,2.7531981 L260.093407,27.0726476 L250.214259,3.10283875 C250.14662,2.84643561 250.047844,2.60612704 249.917933,2.38357799 C249.43533,1.55776008 248.566214,1 247.563966,1 L246.758732,1 C245.235229,1 244,2.27702084 244,3.85262369 L244,21.5771846 L244,31.018037 L244,38.0669035 C244,39.6874601 245.270122,41 246.836034,41 L246.837108,41 C248.403556,41 249.674753,39.6874601 249.674753,38.0669035 L249.674753,16.0539723 L249.777286,16.0539723 L257.453313,34.8513195 L257.466734,34.8857286 C257.522563,35.01837 257.591813,35.1432417 257.665895,35.2642284 C258.152793,36.0695119 259.012246,36.6100674 260,36.6100674 C260.98668,36.6100674 261.846133,36.0695119 262.334105,35.2642284 C262.365241,35.2120598 262.391545,35.1548964 262.419997,35.0999528 L262.617011,34.6187807 L270.19641,16.0539723 L270.325247,16.0539723 L270.325247,21.5766296 L270.325247,21.5771846 L270.325247,38.0669035 C270.325247,39.6874601 271.59537,41 273.161818,41 C274.728267,41 275.998926,39.6874601 275.998926,38.0669035 L276,38.0669035 L276,31.018037 L276,15.5444959 L276,3.85262369 C276,2.27702084 274.764771,1 273.241268,1" id="Fill-4" fill="#000000"></path>
                    <path d="M379.829431,18.5320449 L370.892419,18.5320449 L370.892419,15.5431678 L370.892419,6.3745404 L380.150502,6.3745404 C382.041806,6.3745404 383.486622,6.78685672 384.48495,7.61204428 C385.751951,8.54766381 386.40301,10.0604152 386.438685,12.1508534 C386.438685,13.8927927 385.894649,15.3594845 384.80602,16.5520387 C383.700669,17.8356021 382.041806,18.4959742 379.829431,18.5320449 Z M391.29097,36.7472142 L384.636009,23.544768 L384.48495,23.2478781 C384.486065,23.2478781 384.486065,23.2478781 384.486065,23.2473232 C389.424192,21.2906242 391.928094,17.5958704 392,12.1647267 C391.893534,8.47108285 390.606466,5.62704366 388.141583,3.63371902 C386.092531,1.87790634 383.447046,1 380.205128,1 L367.864548,1 C366.282609,1 365,2.27690423 365,3.85236321 L365,21.5753056 L365,30.1135274 L365,38.0635187 C365,39.6839274 366.318841,40.9963474 367.945373,40.9963474 L367.946488,40.9963474 C369.573021,40.9963474 370.892419,39.6839274 370.892419,38.0635187 L370.892419,23.9038106 L378.367336,23.9038106 L378.438127,23.9038106 L385.730212,39.3798233 L385.738016,39.3948065 C386.467113,40.8426306 388.525084,41.4108835 389.978261,40.6844743 L389.979376,40.6844743 C391.432553,39.958065 392.020624,38.1961481 391.290412,36.7477691 L391.29097,36.7472142 Z" id="Fill-6" fill="#000000"></path>
                    <path d="M22.1192654,1.00055499 L22.1192654,1 L2.880174,1 C1.28929548,1 0,2.27702084 0,3.85262369 L0,21.5771846 L0,32.474873 L0,38.0669035 C0,39.6874601 1.3257321,41 2.96145567,41 L2.96201623,41 C4.59830037,41 5.92459303,39.6874601 5.92459303,38.0669035 L5.92515359,38.0669035 L5.92515359,23.9081222 L19.487421,23.9081222 C20.9863671,23.9081222 22.2005471,22.7060244 22.2005471,21.223104 L22.2005471,21.222549 C22.2005471,19.7396287 20.9863671,18.5369759 19.487421,18.5369759 L19.487421,18.5364209 L11.9730705,18.5364209 L11.9730705,18.533646 L5.92515359,18.533646 L5.92515359,15.5444959 L5.92515359,6.70358243 L22.1192654,6.70358243 C23.710144,6.70358243 25,5.42767156 25,3.85317868 L25,3.85262369 C25,2.27757582 23.710144,1.00055499 22.1192654,1.00055499" id="Fill-8" fill="#000000"></path>
                    <path d="M444,3.85294118 L444,3.85238624 C443.998879,2.27746948 442.710202,1.00055494 441.119395,1.00055494 L441.119395,1 L421.880605,1 C420.289798,1 419,2.27691454 419,3.85238624 L419,21.5760266 L419,32.4722531 L419,38.063818 C419,39.6842397 420.326233,40.9972253 421.961883,40.9972253 L421.963004,40.9972253 C421.964686,40.9972253 421.966928,40.9966704 421.96917,40.9966704 L421.96917,41 L441.119395,40.9972253 L441.119395,40.9966704 C442.710202,40.9966704 443.998879,39.7197558 444,38.1448391 L444,38.1442841 C444,36.5699223 442.710202,35.2935627 441.119395,35.2935627 L424.925448,35.2935627 L424.925448,23.5083241 L438.487668,23.5083241 C439.985426,23.5083241 441.200673,22.3063263 441.200673,20.8229745 L441.200673,20.8224195 C441.200673,19.3396226 439.985426,18.1370699 438.487668,18.1370699 L438.487668,18.136515 L424.925448,18.1337403 L424.925448,6.7036626 L441.119395,6.7036626 C442.710202,6.7036626 444,5.427303 444,3.85294118" id="Fill-10" fill="#000000"></path>
                    <path d="M127,26.4555041 L127,3.93309654 C127,2.31253989 125.688618,1 124.071966,1 L124.070858,1 C122.454207,1 121.143932,2.31253989 121.143932,3.93309654 L121.143932,10.6917057 L121.142824,10.6917057 L121.142824,29.4357743 L121.036451,29.4357743 L104.334747,2.32141965 L104.28156,2.23428698 C103.767423,1.49005189 102.911451,1 101.940241,1 L100.847146,1 C99.2748166,1 98,2.27702084 98,3.85206871 L98,21.5771846 L98,31.8277604 L98,38.0669035 C98,39.6874601 99.3102743,41 100.926926,41 L100.928034,41 C102.544685,41 103.856622,39.6874601 103.856622,38.0669035 L103.856622,15.5444959 L103.856622,12.5642257 L103.962441,12.5642257 L120.610404,39.6308516 L120.703481,39.7823626 C121.218172,40.5171629 122.066942,41 123.032057,41 L124.152854,41 C125.721859,41 126.993352,39.729084 126.998892,38.160141 C126.998892,38.1562561 127,38.1529262 127,38.1490413 C127,38.1451564 126.998892,38.1423814 126.998892,38.1384965 L126.998892,26.4543941 L127,26.4555041 Z" id="Fill-12" fill="#000000"></path>
                    <path d="M65.9988647,3.93309654 C65.9988647,2.31253989 64.656386,1 62.9988647,1 C61.3424787,1 60,2.31253989 60,3.93309654 L60,38.0669035 C60,39.6874601 61.3424787,41 62.9988647,41 C64.656386,41 65.9988647,39.6874601 65.9988647,38.0669035 L66,38.0669035 L66,3.93309654 L65.9988647,3.93309654 Z" id="Fill-14" fill="#000000"></path>
                    <path d="M180.989681,28.5328135 C180.81596,29.8525682 180.405147,30.943669 179.759429,31.805006 C178.292631,34.1320587 175.935376,35.2964176 172.688754,35.2964176 L165.77432,35.2964176 L165.773228,35.2964176 L165.773228,6.70358243 L165.77432,6.70358243 L172.688754,6.70358243 C175.620711,6.63087937 177.891106,7.75749924 179.4983,10.085662 C180.283324,11.019702 180.780451,12.2390044 180.989681,13.7419042 C181.146467,15.2453589 181.22568,17.7377973 181.22568,21.2197741 C181.22568,24.7938785 181.146467,27.2313733 180.989681,28.5328135 M186.713196,12.4676582 C186.468457,10.8215723 185.885015,9.24874435 184.96178,7.74917446 C182.379998,3.28653884 178.506778,1.03662902 173.34376,1 L162.886067,1 C161.291984,1 160,2.31253989 160,3.93309654 L160,38.0669035 C160,39.6874601 161.291984,41 162.886067,41 L172.949883,41 C175.810821,41 178.225983,40.3412326 180.198102,39.0242529 C182.185517,37.7994006 183.738083,36.2448872 184.85416,34.3607126 C185.273713,33.6475567 185.630989,32.96104 185.927626,32.3028276 C186.206236,31.6263007 186.415466,30.8582013 186.555317,29.9985293 C186.851408,28.2974998 187,25.29836 187,21 C187,16.9580431 186.903852,14.1137442 186.713196,12.4676582" id="Fill-16" fill="#000000"></path>
                    <path d="M382.271,23.536 L382.001,23 C382.001,23.001 382.001,23.001 382,23.001 L382.271,23.536 Z" id="Fill-18" fill="#000000"></path>
                </g>
            </g>
        </g>
    </g>
</svg>