<?xml version="1.0" encoding="UTF-8"?>
<svg width="56px" height="56px" viewBox="0 0 56 56" version="1.1" xmlns="http://www.w3.org/2000/svg" xmlns:xlink="http://www.w3.org/1999/xlink">
    <!-- Generator: Sketch 53.2 (72643) - https://sketchapp.com -->
    <title>cpu</title>
    <desc>Created with Sketch.</desc>
    <g id="Page-1" stroke="none" stroke-width="1" fill="none" fill-rule="evenodd">
        <g id="2_1游戏mobile" transform="translate(-81.000000, -8651.000000)">
            <g id="9" transform="translate(0.000000, 8471.000000)">
                <g id="Group-7" transform="translate(45.000000, 180.000000)">
                    <g id="icon/star-copy-6" transform="translate(36.000000, 0.000000)">
                        <g id="ic_memory">
                            <polygon id="Bounds" fill-opacity="0" fill="#FF0000" points="0 0 56 0 56 56 0 56"></polygon>
                            <rect id="Rectangle" stroke="#FFFFFF" opacity="0.800000012" x="0.5" y="0.5" width="55" height="55" rx="10"></rect>
                            <path d="M33.5714286,22.4285714 L22.4285714,22.4285714 L22.4285714,33.5714286 L33.5714286,33.5714286 L33.5714286,22.4285714 L33.5714286,22.4285714 Z M29.8571429,29.8571429 L26.1428571,29.8571429 L26.1428571,26.1428571 L29.8571429,26.1428571 L29.8571429,29.8571429 L29.8571429,29.8571429 Z M41,22.4285714 L41,18.7142857 C41,16.6714286 39.3285714,15 37.2857143,15 L33.5714286,15 L29.8571429,15 L26.1428571,15 L22.4285714,15 L18.7142857,15 C16.6714286,15 15,16.6714286 15,18.7142857 L15,22.4285714 L15,26.1428571 L15,29.8571429 L15,33.5714286 L15,37.2857143 C15,39.3285714 16.6714286,41 18.7142857,41 L22.4285714,41 L26.1428571,41 L29.8571429,41 L33.5714286,41 L37.2857143,41 C39.3285714,41 41,39.3285714 41,37.2857143 L41,33.5714286 L41,29.8571429 L41,26.1428571 L41,22.4285714 Z" id="Shape" fill="#FFFFFF"></path>
                        </g>
                    </g>
                </g>
            </g>
        </g>
    </g>
</svg>