<?xml version="1.0" encoding="UTF-8"?>
<svg width="18px" height="18px" viewBox="0 0 24 24" version="1.1" xmlns="http://www.w3.org/2000/svg" xmlns:xlink="http://www.w3.org/1999/xlink">
    <!-- Generator: Sketch 53.2 (72643) - https://sketchapp.com -->
    <title>oppo-icon/more</title>
    <desc>Created with Sketch.</desc>
    <g id="homepage" stroke="none" stroke-width="1" fill="none" fill-rule="evenodd">
        <g id="1_2首页Web" transform="translate(-923.000000, -11464.000000)" fill="#1BC9BE" fill-rule="nonzero">
            <g id="more-copy-3" transform="translate(919.000000, 11460.000000)">
                <path d="M15,15 L15,11.875 C15,11.3227153 15.4477153,10.875 16,10.875 C16.5522847,10.875 17,11.3227153 17,11.875 L17,15 L20.125,15 C20.6772847,15 21.125,15.4477153 21.125,16 C21.125,16.5522847 20.6772847,17 20.125,17 L17,17 L17,20.125 C17,20.6772847 16.5522847,21.125 16,21.125 C15.4477153,21.125 15,20.6772847 15,20.125 L15,17 L11.875,17 C11.3227153,17 10.875,16.5522847 10.875,16 C10.875,15.4477153 11.3227153,15 11.875,15 L15,15 Z M16,28 C9.372583,28 4,22.627417 4,16 C4,9.372583 9.372583,4 16,4 C22.627417,4 28,9.372583 28,16 C28,22.627417 22.627417,28 16,28 Z M16,26 C21.5228475,26 26,21.5228475 26,16 C26,10.4771525 21.5228475,6 16,6 C10.4771525,6 6,10.4771525 6,16 C6,21.5228475 10.4771525,26 16,26 Z" id="Shape"></path>
            </g>
        </g>
    </g>
</svg>
