<?xml version="1.0" encoding="UTF-8"?>
<svg width="56px" height="56px" viewBox="0 0 56 56" version="1.1" xmlns="http://www.w3.org/2000/svg" xmlns:xlink="http://www.w3.org/1999/xlink">
    <!-- Generator: Sketch 53.2 (72643) - https://sketchapp.com -->
    <title>game</title>
    <desc>Created with Sketch.</desc>
    <g id="Page-1" stroke="none" stroke-width="1" fill="none" fill-rule="evenodd">
        <g id="2_1游戏mobile" transform="translate(-240.000000, -8651.000000)">
            <g id="9" transform="translate(0.000000, 8471.000000)">
                <g id="Group-6" transform="translate(212.000000, 180.000000)">
                    <g id="icon/star-copy-2" transform="translate(28.000000, 0.000000)">
                        <g id="ic_star">
                            <polygon id="Bounds" fill-opacity="0" fill="#FF0000" points="0 0 56 0 56 56 0 56"></polygon>
                            <rect id="Rectangle" stroke="#FFFFFF" opacity="0.800000012" x="0.5" y="0.5" width="55" height="55" rx="10"></rect>
                        </g>
                        <g id="ic_visibility-copy" transform="translate(8.000000, 8.000000)">
                            <polygon id="Bounds" fill-opacity="0" fill="#FF0000" points="0 0 41 0 41 41 0 41"></polygon>
                            <g id="gamepad" transform="translate(3.660714, 10.982143)" fill="#FFFFFF" fill-rule="nonzero">
                                <path d="M33.3056492,12.9324265 C33.6749025,14.222581 33.5368604,15.5908562 32.9170478,16.7853601 C32.2970864,17.9801551 31.2488597,18.8973817 29.9654777,19.3679967 C28.6817981,19.8383209 27.2750341,19.8210092 26.0041541,19.3194077 C24.7333486,18.817879 23.7088606,17.8755578 23.1194842,16.6662152 L22.5702474,15.5452126 C22.1909808,14.7711224 21.4041062,14.2804768 20.5420977,14.2805858 L13.0017968,14.2815389 C12.1392741,14.2816479 11.3521483,14.7730718 10.9733404,15.5479589 L10.4262478,16.6670881 C9.51070518,18.5458387 7.36476499,19.7114657 5.19449069,19.7115385 C4.52734939,19.7115385 3.85819884,19.6014131 3.22149376,19.3680695 C0.691714767,18.4402231 -0.561603012,15.7337137 0.241273459,12.9323538 L2.67155799,4.44957166 C3.14082659,2.8106383 4.30052878,1.42883389 5.85314855,0.658538122 C7.40606598,-0.111903122 9.2320909,-0.210899585 10.8629221,0.386352403 C12.0559628,0.823944409 13.068172,1.59278542 13.7905301,2.60973586 C13.7908278,2.60973586 13.7941765,2.611918 13.8005019,2.611918 L19.7458254,2.611918 C19.7528206,2.611918 19.7562437,2.60922669 19.7562437,2.60922669 C20.4788251,1.59271268 21.491332,0.823871671 22.6836285,0.386497879 C24.3143853,-0.211190537 26.1402614,-0.11197586 27.6933276,0.658465384 C29.2463195,1.42883389 30.4060961,2.8106383 30.8753647,4.44971714 L33.3056492,12.9324265 Z M25.5926569,5.63186813 C26.1253811,5.63186813 26.5572394,5.21162259 26.5572394,4.69322344 C26.5572394,4.1748243 26.1253811,3.75457875 25.5926569,3.75457875 C25.0599327,3.75457875 24.6280744,4.1748243 24.6280744,4.69322344 C24.6280744,5.21162259 25.0599327,5.63186813 25.5926569,5.63186813 Z M25.5926569,10.3250916 C26.1253811,10.3250916 26.5572394,9.90484603 26.5572394,9.38644689 C26.5572394,8.86804774 26.1253811,8.4478022 25.5926569,8.4478022 C25.0599327,8.4478022 24.6280744,8.86804774 24.6280744,9.38644689 C24.6280744,9.90484603 25.0599327,10.3250916 25.5926569,10.3250916 Z M23.1812006,7.97847985 C23.7139248,7.97847985 24.1457831,7.55823431 24.1457831,7.03983516 C24.1457831,6.52143602 23.7139248,6.10119048 23.1812006,6.10119048 C22.6484763,6.10119048 22.216618,6.52143602 22.216618,7.03983516 C22.216618,7.55823431 22.6484763,7.97847985 23.1812006,7.97847985 Z M28.0041132,7.97847985 C28.5368375,7.97847985 28.9686958,7.55823431 28.9686958,7.03983516 C28.9686958,6.52143602 28.5368375,6.10119048 28.0041132,6.10119048 C27.471389,6.10119048 27.0395307,6.52143602 27.0395307,7.03983516 C27.0395307,7.55823431 27.471389,7.97847985 28.0041132,7.97847985 Z M10.807535,6.29301681 L9.44869821,6.29301681 L9.44869821,4.97071945 C9.44869821,4.55828574 9.10514627,4.2239011 8.68124281,4.2239011 C8.25741219,4.2239011 7.9137874,4.55821485 7.9137874,4.97071945 L7.9137874,6.29301681 L6.55495061,6.29301681 C6.13111999,6.29301681 5.78749521,6.62733056 5.78749521,7.03983516 C5.78749521,7.45226888 6.13104714,7.78665352 6.55495061,7.78665352 L7.9137874,7.78665352 L7.9137874,9.10895088 C7.9137874,9.52138459 8.25733934,9.85576923 8.68124281,9.85576923 C9.10507342,9.85576923 9.44869821,9.52145548 9.44869821,9.10895088 L9.44869821,7.78665352 L10.807535,7.78665352 C11.2313656,7.78665352 11.5749904,7.45233977 11.5749904,7.03983516 C11.5749176,6.62733056 11.2313656,6.29301681 10.807535,6.29301681 Z" id="Combined-Shape"></path>
                            </g>
                        </g>
                    </g>
                </g>
            </g>
        </g>
    </g>
</svg>